<svg version="1.1" id="Layer_1" xmlns="http://www.w3.org/2000/svg" xmlns:xlink="http://www.w3.org/1999/xlink" x="0px" y="0px"
	 width="100%" viewBox="0 0 2410 582" enable-background="new 0 0 2410 582" xml:space="preserve">
<path fill="#000000" opacity="1.000000" stroke="none" 
	d="
M1754.000000,583.000000 
	C1169.333374,583.000000 585.166687,583.000000 1.000000,583.000000 
	C1.000000,389.000000 1.000000,195.000000 1.000000,1.000000 
	C804.333313,1.000000 1607.666626,1.000000 2411.000000,1.000000 
	C2411.000000,195.000000 2411.000000,389.000000 2411.000000,583.000000 
	C2192.166748,583.000000 1973.333374,583.000000 1754.000000,583.000000 
M2161.369141,72.407127 
	C2158.507812,77.449883 2155.530518,82.431023 2152.810547,87.548813 
	C2147.879883,96.825722 2149.571289,96.460800 2140.448486,90.118965 
	C2125.479248,79.713272 2109.942383,70.538895 2090.554199,71.975319 
	C2078.628906,72.858818 2067.903320,76.024132 2059.308594,85.080757 
	C2048.453613,96.518860 2043.994507,110.839661 2042.348999,125.642693 
	C2040.620605,141.193069 2041.337891,157.016632 2041.038452,172.721802 
	C2041.016357,173.879196 2041.414307,175.044601 2041.756226,177.005035 
	C2043.917236,174.549591 2045.486328,172.859116 2046.953125,171.084091 
	C2053.527100,163.129196 2061.993652,160.650894 2069.661377,169.105682 
	C2071.092773,170.684052 2072.959229,171.859009 2074.545654,173.307022 
	C2081.358643,179.525299 2088.142334,185.776031 2094.730225,191.825439 
	C2089.368408,201.789841 2084.508301,210.821869 2079.648193,219.853897 
	C2080.109619,220.251617 2080.571289,220.649338 2081.032959,221.047058 
	C2082.621094,220.381668 2084.287109,219.857681 2085.785645,219.029953 
	C2113.060791,203.963577 2140.261963,188.761948 2167.636719,173.879364 
	C2171.435547,171.814117 2172.213135,169.390472 2172.010986,165.568954 
	C2171.231689,150.830841 2170.555664,136.085571 2170.027832,121.336288 
	C2169.511230,106.892441 2169.222412,92.440453 2168.932129,77.098122 
	C2168.682861,72.951363 2168.433594,68.804604 2168.184326,64.657845 
	C2167.565918,64.504204 2166.947266,64.350555 2166.328613,64.196915 
	C2164.846436,66.785515 2163.364014,69.374115 2161.369141,72.407127 
M1589.000977,479.500000 
	C1589.002075,491.999542 1589.147949,504.501617 1588.926025,516.997192 
	C1588.848511,521.361694 1589.925171,523.098450 1594.717041,523.091858 
	C1688.545898,522.963135 1782.374878,522.965942 1876.203735,523.086060 
	C1880.868042,523.091980 1882.131592,521.561340 1882.082275,517.079834 
	C1881.878662,498.582916 1882.003052,480.082458 1881.997314,461.583313 
	C1881.994873,454.015259 1881.983765,454.002838 1874.367188,454.002350 
	C1806.703613,453.998108 1739.039917,453.948242 1671.376709,454.100494 
	C1666.361206,454.111786 1664.859741,452.742126 1664.892212,447.660797 
	C1665.105225,414.330383 1664.998413,380.997894 1665.002441,347.666107 
	C1665.003296,340.016632 1665.014526,340.003265 1672.548828,340.002716 
	C1732.712646,339.998383 1792.876587,340.002075 1853.040405,339.995392 
	C1859.966919,339.994598 1859.989624,339.972076 1859.994385,333.244751 
	C1860.007202,314.912262 1860.004761,296.579773 1859.996338,278.247284 
	C1859.993042,271.017700 1859.978638,271.003448 1852.532593,271.002869 
	C1792.368652,270.998260 1732.204834,271.001923 1672.040894,270.995575 
	C1665.023071,270.994843 1665.005371,270.973663 1665.003784,263.825958 
	C1664.997070,233.660675 1665.116089,203.494553 1664.890869,173.330963 
	C1664.852783,168.237015 1666.377441,166.857971 1671.384521,166.893524 
	C1701.381714,167.106583 1731.380981,166.998322 1761.379639,166.997253 
	C1796.044678,166.996017 1830.710083,166.927490 1865.374512,167.076630 
	C1869.734131,167.095383 1871.129517,165.806046 1871.082642,161.401428 
	C1870.876587,142.071198 1870.901978,122.736732 1871.066406,103.405701 
	C1871.101074,99.332970 1869.885254,97.730469 1865.684937,97.935081 
	C1859.865845,98.218544 1854.022339,98.000275 1848.189331,98.000275 
	C1764.026489,98.000305 1679.863770,97.998627 1595.700928,98.005798 
	C1589.043091,98.006363 1589.041138,98.035408 1589.004272,104.517265 
	C1588.994873,106.183800 1589.001099,107.850433 1589.001099,109.517021 
	C1589.001099,232.511353 1589.000977,355.505676 1589.000977,479.500000 
M1924.667480,295.997375 
	C1959.332275,295.997101 1993.997803,295.896667 2028.661377,296.106537 
	C2033.747559,296.137360 2035.126587,294.629700 2035.101196,289.617554 
	C2034.908936,251.620483 2034.997070,213.621994 2034.991211,175.623962 
	C2034.990967,174.291794 2034.919800,172.959717 2034.888062,171.627441 
	C2034.576294,158.573990 2033.872559,145.515076 2034.052734,132.468399 
	C2034.286011,115.567558 2040.209106,100.393578 2049.694336,86.521790 
	C2050.628418,85.155846 2051.191406,83.536026 2051.926514,82.034065 
	C2051.622803,81.707291 2051.319092,81.380524 2051.015381,81.053749 
	C2048.241699,82.318794 2045.362305,83.394852 2042.711060,84.878654 
	C2019.990234,97.594482 1997.465698,110.670860 1974.562378,123.046852 
	C1960.255493,130.777649 1945.919434,138.190033 1932.975220,148.295181 
	C1925.544678,154.096008 1918.581543,159.442307 1917.397095,169.397263 
	C1916.731812,174.988937 1916.040039,180.629700 1916.077759,186.243500 
	C1916.220337,207.372299 1916.611328,228.499969 1917.000854,249.626358 
	C1917.252075,263.255463 1917.861206,276.881195 1917.890259,290.509369 
	C1917.899902,295.050201 1919.510864,296.566345 1924.667480,295.997375 
M1885.437134,381.781616 
	C1887.118164,382.186218 1888.792847,382.907166 1890.481201,382.940338 
	C1897.478271,383.077789 1904.482544,383.134918 1911.477661,382.959808 
	C1914.999756,382.871643 1916.035767,384.235077 1916.006226,387.664246 
	C1915.879272,402.416962 1914.995605,417.260620 1916.304810,431.899719 
	C1917.520020,445.486572 1922.916016,458.250397 1933.916016,467.124542 
	C1949.763672,479.909637 1965.828735,492.443146 1983.800049,502.332703 
	C2007.400635,515.319885 2031.827026,526.436279 2056.960205,536.051147 
	C2058.340576,536.579285 2059.930176,536.560242 2061.422363,536.795898 
	C2061.654541,536.405945 2061.886719,536.015991 2062.118896,535.626038 
	C2060.976318,534.162231 2059.988037,532.538147 2058.662842,531.264465 
	C2054.593750,527.353333 2050.089600,523.855225 2046.303955,519.696289 
	C2033.937744,506.110657 2026.426147,489.680054 2025.387695,471.738159 
	C2023.935913,446.656860 2024.982300,421.428497 2025.069336,396.263458 
	C2025.081299,392.801300 2025.434814,389.273529 2026.226807,385.916901 
	C2026.505127,384.736633 2028.530762,383.228607 2029.829590,383.157043 
	C2035.479248,382.845673 2041.155029,383.005493 2046.821411,383.000031 
	C2051.558594,382.995483 2056.295898,382.999146 2061.033203,382.999146 
	C2061.144531,382.561340 2061.255859,382.123505 2061.367188,381.685699 
	C2059.596191,380.339691 2057.909912,378.861359 2056.041748,377.667664 
	C2029.079346,360.440552 2002.061279,343.300232 1975.154907,325.986389 
	C1972.131836,324.040985 1970.029175,324.269012 1967.153320,326.190887 
	C1949.919678,337.707947 1932.507324,348.957336 1915.262573,360.458099 
	C1905.212036,367.160950 1895.362305,374.165009 1885.437134,381.781616 
M2216.504395,327.022095 
	C2214.243164,323.159912 2212.105957,319.215912 2209.647461,315.483612 
	C2208.872559,314.306976 2207.236816,313.697449 2205.994873,312.828400 
	C2205.334961,314.172241 2204.176514,315.485718 2204.092529,316.864655 
	C2203.284912,330.112091 2202.674316,343.371429 2201.972168,356.625519 
	C2201.665283,362.421936 2201.308594,368.216187 2200.919434,374.007751 
	C2199.963379,388.226593 2199.068115,402.450592 2197.947266,416.656677 
	C2197.586182,421.236420 2199.077637,423.892883 2203.433594,425.851837 
	C2228.094727,436.942139 2252.621826,448.329407 2277.221436,459.556946 
	C2283.591064,462.464142 2290.056641,465.160797 2296.478271,467.954102 
	C2296.797119,467.617340 2297.116211,467.280609 2297.435059,466.943878 
	C2291.654053,456.860138 2285.872803,446.776428 2280.031006,436.586975 
	C2281.184082,435.578552 2281.954590,434.676849 2282.919189,434.096771 
	C2291.868652,428.714447 2301.044678,423.681000 2309.761963,417.948822 
	C2316.369141,413.604279 2323.237793,409.145782 2328.480225,403.368164 
	C2334.865967,396.330322 2336.922363,386.924774 2336.961182,377.412842 
	C2337.067383,351.250702 2336.999756,325.087891 2336.999756,298.925323 
	C2336.999512,279.928314 2337.023682,260.931213 2336.953369,241.934448 
	C2336.946777,240.125214 2336.343262,238.318161 2336.016846,236.510101 
	C2335.551514,236.588165 2335.086182,236.666229 2334.621094,236.744293 
	C2334.257324,237.823669 2333.843750,238.889496 2333.545166,239.986618 
	C2333.285645,240.940491 2333.156738,241.929840 2332.969238,242.903305 
	C2329.093994,263.025024 2318.218018,278.942108 2301.718506,290.342438 
	C2283.051270,303.240845 2263.451660,314.792725 2244.218506,326.868134 
	C2237.528320,331.068481 2230.721436,335.083618 2223.581543,339.418060 
	C2221.109863,335.089874 2218.989014,331.376282 2216.504395,327.022095 
M2181.065186,497.541138 
	C2190.260010,491.107758 2199.455078,484.674377 2208.973389,478.014679 
	C2189.296631,446.991699 2169.986816,416.546936 2150.517334,385.850464 
	C2133.706787,395.576843 2117.362549,405.020081 2101.031494,414.485870 
	C2080.519775,426.374786 2059.997559,438.246002 2039.557373,450.256470 
	C2038.067871,451.131683 2036.275513,453.024475 2036.195312,454.527924 
	C2035.399658,469.455170 2037.205444,484.076569 2043.452026,497.784485 
	C2051.659668,515.795471 2064.555420,529.706787 2081.595215,539.787964 
	C2090.476807,545.042664 2099.847168,547.189880 2109.624512,542.998413 
	C2115.543213,540.461060 2121.267822,537.280212 2126.668701,533.758240 
	C2144.713867,521.990723 2162.573975,509.939209 2181.065186,497.541138 
M2287.933105,167.542892 
	C2267.003418,155.057602 2246.042480,142.624069 2225.171875,130.040955 
	C2221.271729,127.689598 2218.928467,128.452881 2216.848877,132.356918 
	C2201.476318,161.213623 2186.071045,190.053055 2170.524170,218.815903 
	C2168.562500,222.445007 2169.457520,224.626770 2172.491699,226.746353 
	C2184.580566,235.191284 2196.647217,243.668427 2208.697510,252.168640 
	C2230.088867,267.258453 2251.478760,282.350250 2272.819092,297.512054 
	C2275.145264,299.164581 2277.053467,300.057190 2279.997559,298.569794 
	C2300.963135,287.977020 2315.402100,271.637085 2323.962646,249.840164 
	C2328.281250,238.844116 2329.195557,227.319672 2329.972656,215.754929 
	C2330.885010,202.179031 2324.799316,192.200226 2313.709229,184.867218 
	C2305.275635,179.290558 2296.900391,173.626175 2287.933105,167.542892 
z"/>
<path fill="#007513" opacity="1.000000" stroke="none" 
	d="
M1589.000977,479.000000 
	C1589.000977,355.505676 1589.001099,232.511353 1589.001099,109.517021 
	C1589.001099,107.850433 1588.994873,106.183800 1589.004272,104.517265 
	C1589.041138,98.035408 1589.043091,98.006363 1595.700928,98.005798 
	C1679.863770,97.998627 1764.026489,98.000305 1848.189331,98.000275 
	C1854.022339,98.000275 1859.865845,98.218544 1865.684937,97.935081 
	C1869.885254,97.730469 1871.101074,99.332970 1871.066406,103.405701 
	C1870.901978,122.736732 1870.876587,142.071198 1871.082642,161.401428 
	C1871.129517,165.806046 1869.734131,167.095383 1865.374512,167.076630 
	C1830.710083,166.927490 1796.044678,166.996017 1761.379639,166.997253 
	C1731.380981,166.998322 1701.381714,167.106583 1671.384521,166.893524 
	C1666.377441,166.857971 1664.852783,168.237015 1664.890869,173.330963 
	C1665.116089,203.494553 1664.997070,233.660675 1665.003784,263.825958 
	C1665.005371,270.973663 1665.023071,270.994843 1672.040894,270.995575 
	C1732.204834,271.001923 1792.368652,270.998260 1852.532593,271.002869 
	C1859.978638,271.003448 1859.993042,271.017700 1859.996338,278.247284 
	C1860.004761,296.579773 1860.007202,314.912262 1859.994385,333.244751 
	C1859.989624,339.972076 1859.966919,339.994598 1853.040405,339.995392 
	C1792.876587,340.002075 1732.712646,339.998383 1672.548828,340.002716 
	C1665.014526,340.003265 1665.003296,340.016632 1665.002441,347.666107 
	C1664.998413,380.997894 1665.105225,414.330383 1664.892212,447.660797 
	C1664.859741,452.742126 1666.361206,454.111786 1671.376709,454.100494 
	C1739.039917,453.948242 1806.703613,453.998108 1874.367188,454.002350 
	C1881.983765,454.002838 1881.994873,454.015259 1881.997314,461.583313 
	C1882.003052,480.082458 1881.878662,498.582916 1882.082275,517.079834 
	C1882.131592,521.561340 1880.868042,523.091980 1876.203735,523.086060 
	C1782.374878,522.965942 1688.545898,522.963135 1594.717041,523.091858 
	C1589.925171,523.098450 1588.848511,521.361694 1588.926025,516.997192 
	C1589.147949,504.501617 1589.002075,491.999542 1589.000977,479.000000 
z"/>
<path fill="#007513" opacity="1.000000" stroke="none" 
	d="
M1924.193481,295.996094 
	C1919.510864,296.566345 1917.899902,295.050201 1917.890259,290.509369 
	C1917.861206,276.881195 1917.252075,263.255463 1917.000854,249.626358 
	C1916.611328,228.499969 1916.220337,207.372299 1916.077759,186.243500 
	C1916.040039,180.629700 1916.731812,174.988937 1917.397095,169.397263 
	C1918.581543,159.442307 1925.544678,154.096008 1932.975220,148.295181 
	C1945.919434,138.190033 1960.255493,130.777649 1974.562378,123.046852 
	C1997.465698,110.670860 2019.990234,97.594482 2042.711060,84.878654 
	C2045.362305,83.394852 2048.241699,82.318794 2051.015381,81.053749 
	C2051.319092,81.380524 2051.622803,81.707291 2051.926514,82.034065 
	C2051.191406,83.536026 2050.628418,85.155846 2049.694336,86.521790 
	C2040.209106,100.393578 2034.286011,115.567558 2034.052734,132.468399 
	C2033.872559,145.515076 2034.576294,158.573990 2034.888062,171.627441 
	C2034.919800,172.959717 2034.990967,174.291794 2034.991211,175.623962 
	C2034.997070,213.621994 2034.908936,251.620483 2035.101196,289.617554 
	C2035.126587,294.629700 2033.747559,296.137360 2028.661377,296.106537 
	C1993.997803,295.896667 1959.332275,295.997101 1924.193481,295.996094 
z"/>
<path fill="#007513" opacity="1.000000" stroke="none" 
	d="
M1885.429688,381.407593 
	C1895.362305,374.165009 1905.212036,367.160950 1915.262573,360.458099 
	C1932.507324,348.957336 1949.919678,337.707947 1967.153320,326.190887 
	C1970.029175,324.269012 1972.131836,324.040985 1975.154907,325.986389 
	C2002.061279,343.300232 2029.079346,360.440552 2056.041748,377.667664 
	C2057.909912,378.861359 2059.596191,380.339691 2061.367188,381.685699 
	C2061.255859,382.123505 2061.144531,382.561340 2061.033203,382.999146 
	C2056.295898,382.999146 2051.558594,382.995483 2046.821411,383.000031 
	C2041.155029,383.005493 2035.479248,382.845673 2029.829590,383.157043 
	C2028.530762,383.228607 2026.505127,384.736633 2026.226807,385.916901 
	C2025.434814,389.273529 2025.081299,392.801300 2025.069336,396.263458 
	C2024.982300,421.428497 2023.935913,446.656860 2025.387695,471.738159 
	C2026.426147,489.680054 2033.937744,506.110657 2046.303955,519.696289 
	C2050.089600,523.855225 2054.593750,527.353333 2058.662842,531.264465 
	C2059.988037,532.538147 2060.976318,534.162231 2062.118896,535.626038 
	C2061.886719,536.015991 2061.654541,536.405945 2061.422363,536.795898 
	C2059.930176,536.560242 2058.340576,536.579285 2056.960205,536.051147 
	C2031.827026,526.436279 2007.400635,515.319885 1983.800049,502.332703 
	C1965.828735,492.443146 1949.763672,479.909637 1933.916016,467.124542 
	C1922.916016,458.250397 1917.520020,445.486572 1916.304810,431.899719 
	C1914.995605,417.260620 1915.879272,402.416962 1916.006226,387.664246 
	C1916.035767,384.235077 1914.999756,382.871643 1911.477661,382.959808 
	C1904.482544,383.134918 1897.478271,383.077789 1890.481201,382.940338 
	C1888.792847,382.907166 1887.118164,382.186218 1885.429688,381.407593 
z"/>
<path fill="#007513" opacity="1.000000" stroke="none" 
	d="
M2216.686523,327.342377 
	C2218.989014,331.376282 2221.109863,335.089874 2223.581543,339.418060 
	C2230.721436,335.083618 2237.528320,331.068481 2244.218506,326.868134 
	C2263.451660,314.792725 2283.051270,303.240845 2301.718506,290.342438 
	C2318.218018,278.942108 2329.093994,263.025024 2332.969238,242.903305 
	C2333.156738,241.929840 2333.285645,240.940491 2333.545166,239.986618 
	C2333.843750,238.889496 2334.257324,237.823669 2334.621094,236.744293 
	C2335.086182,236.666229 2335.551514,236.588165 2336.016846,236.510101 
	C2336.343262,238.318161 2336.946777,240.125214 2336.953369,241.934448 
	C2337.023682,260.931213 2336.999512,279.928314 2336.999756,298.925323 
	C2336.999756,325.087891 2337.067383,351.250702 2336.961182,377.412842 
	C2336.922363,386.924774 2334.865967,396.330322 2328.480225,403.368164 
	C2323.237793,409.145782 2316.369141,413.604279 2309.761963,417.948822 
	C2301.044678,423.681000 2291.868652,428.714447 2282.919189,434.096771 
	C2281.954590,434.676849 2281.184082,435.578552 2280.031006,436.586975 
	C2285.872803,446.776428 2291.654053,456.860138 2297.435059,466.943878 
	C2297.116211,467.280609 2296.797119,467.617340 2296.478271,467.954102 
	C2290.056641,465.160797 2283.591064,462.464142 2277.221436,459.556946 
	C2252.621826,448.329407 2228.094727,436.942139 2203.433594,425.851837 
	C2199.077637,423.892883 2197.586182,421.236420 2197.947266,416.656677 
	C2199.068115,402.450592 2199.963379,388.226593 2200.919434,374.007751 
	C2201.308594,368.216187 2201.665283,362.421936 2201.972168,356.625519 
	C2202.674316,343.371429 2203.284912,330.112091 2204.092529,316.864655 
	C2204.176514,315.485718 2205.334961,314.172241 2205.994873,312.828400 
	C2207.236816,313.697449 2208.872559,314.306976 2209.647461,315.483612 
	C2212.105957,319.215912 2214.243164,323.159912 2216.686523,327.342377 
z"/>
<path fill="#007513" opacity="1.000000" stroke="none" 
	d="
M2180.785156,497.768829 
	C2162.573975,509.939209 2144.713867,521.990723 2126.668701,533.758240 
	C2121.267822,537.280212 2115.543213,540.461060 2109.624512,542.998413 
	C2099.847168,547.189880 2090.476807,545.042664 2081.595215,539.787964 
	C2064.555420,529.706787 2051.659668,515.795471 2043.452026,497.784485 
	C2037.205444,484.076569 2035.399658,469.455170 2036.195312,454.527924 
	C2036.275513,453.024475 2038.067871,451.131683 2039.557373,450.256470 
	C2059.997559,438.246002 2080.519775,426.374786 2101.031494,414.485870 
	C2117.362549,405.020081 2133.706787,395.576843 2150.517334,385.850464 
	C2169.986816,416.546936 2189.296631,446.991699 2208.973389,478.014679 
	C2199.455078,484.674377 2190.260010,491.107758 2180.785156,497.768829 
z"/>
<path fill="#007513" opacity="1.000000" stroke="none" 
	d="
M2288.216064,167.771851 
	C2296.900391,173.626175 2305.275635,179.290558 2313.709229,184.867218 
	C2324.799316,192.200226 2330.885010,202.179031 2329.972656,215.754929 
	C2329.195557,227.319672 2328.281250,238.844116 2323.962646,249.840164 
	C2315.402100,271.637085 2300.963135,287.977020 2279.997559,298.569794 
	C2277.053467,300.057190 2275.145264,299.164581 2272.819092,297.512054 
	C2251.478760,282.350250 2230.088867,267.258453 2208.697510,252.168640 
	C2196.647217,243.668427 2184.580566,235.191284 2172.491699,226.746353 
	C2169.457520,224.626770 2168.562500,222.445007 2170.524170,218.815903 
	C2186.071045,190.053055 2201.476318,161.213623 2216.848877,132.356918 
	C2218.928467,128.452881 2221.271729,127.689598 2225.171875,130.040955 
	C2246.042480,142.624069 2267.003418,155.057602 2288.216064,167.771851 
z"/>
<path fill="#007513" opacity="1.000000" stroke="none" 
	d="
M2168.833740,77.992020 
	C2169.222412,92.440453 2169.511230,106.892441 2170.027832,121.336288 
	C2170.555664,136.085571 2171.231689,150.830841 2172.010986,165.568954 
	C2172.213135,169.390472 2171.435547,171.814117 2167.636719,173.879364 
	C2140.261963,188.761948 2113.060791,203.963577 2085.785645,219.029953 
	C2084.287109,219.857681 2082.621094,220.381668 2081.032959,221.047058 
	C2080.571289,220.649338 2080.109619,220.251617 2079.648193,219.853897 
	C2084.508301,210.821869 2089.368408,201.789841 2094.730225,191.825439 
	C2088.142334,185.776031 2081.358643,179.525299 2074.545654,173.307022 
	C2072.959229,171.859009 2071.092773,170.684052 2069.661377,169.105682 
	C2061.993652,160.650894 2053.527100,163.129196 2046.953125,171.084091 
	C2045.486328,172.859116 2043.917236,174.549591 2041.756226,177.005035 
	C2041.414307,175.044601 2041.016357,173.879196 2041.038452,172.721802 
	C2041.337891,157.016632 2040.620605,141.193069 2042.348999,125.642693 
	C2043.994507,110.839661 2048.453613,96.518860 2059.308594,85.080757 
	C2067.903320,76.024132 2078.628906,72.858818 2090.554199,71.975319 
	C2109.942383,70.538895 2125.479248,79.713272 2140.448486,90.118965 
	C2149.571289,96.460800 2147.879883,96.825722 2152.810547,87.548813 
	C2155.530518,82.431023 2158.507812,77.449883 2161.892578,72.092995 
	C2163.753906,72.462517 2165.341309,72.893028 2166.362305,73.898636 
	C2167.462891,74.982346 2168.032471,76.604622 2168.833740,77.992020 
z"/>
<path fill="#007513" opacity="1.000000" stroke="none" 
	d="
M2168.882812,77.545074 
	C2168.032471,76.604622 2167.462891,74.982346 2166.362305,73.898636 
	C2165.341309,72.893028 2163.753906,72.462517 2162.148926,71.870789 
	C2163.364014,69.374115 2164.846436,66.785515 2166.328613,64.196915 
	C2166.947266,64.350555 2167.565918,64.504204 2168.184326,64.657845 
	C2168.433594,68.804604 2168.682861,72.951363 2168.882812,77.545074 
z"/>
</svg>