<svg width="2410" height="582" viewBox="0 0 2410 582" fill="none" xmlns="http://www.w3.org/2000/svg">
<path d="M1588.4 97.2H1869.8V165.6H1664V270H1859V338.4H1664V453.6H1880.6V522H1588.4V97.2Z" fill="#007513"/>
<path d="M50.3422 238.8H148.742C162.342 238.8 175.409 240.133 187.942 242.8C200.742 245.2 212.076 249.467 221.942 255.6C231.809 261.733 239.676 270 245.542 280.4C251.409 290.8 254.342 304 254.342 320C254.342 340.533 248.609 357.733 237.142 371.6C225.942 385.467 209.809 393.867 188.742 396.8L263.942 522H203.142L137.542 402H100.742V522H50.3422V238.8ZM139.942 358.8C147.142 358.8 154.342 358.533 161.542 358C168.742 357.2 175.276 355.6 181.142 353.2C187.276 350.533 192.209 346.667 195.942 341.6C199.676 336.267 201.542 328.933 201.542 319.6C201.542 311.333 199.809 304.667 196.342 299.6C192.876 294.533 188.342 290.8 182.742 288.4C177.142 285.733 170.876 284 163.942 283.2C157.276 282.4 150.742 282 144.342 282H100.742V358.8H139.942ZM302.295 238.8H489.895V284.4H352.695V354H482.695V399.6H352.695V476.4H497.095V522H302.295V238.8ZM741.227 305.2C730.827 294 720.693 286.533 710.827 282.8C701.227 279.067 691.493 277.2 681.627 277.2C666.96 277.2 653.627 279.867 641.627 285.2C629.893 290.267 619.76 297.467 611.227 306.8C602.693 315.867 596.027 326.533 591.227 338.8C586.693 351.067 584.427 364.267 584.427 378.4C584.427 393.6 586.693 407.6 591.227 420.4C596.027 433.2 602.693 444.267 611.227 453.6C619.76 462.933 629.893 470.267 641.627 475.6C653.627 480.933 666.96 483.6 681.627 483.6C693.093 483.6 704.16 480.933 714.827 475.6C725.76 470 735.893 461.2 745.227 449.2L786.827 478.8C774.027 496.4 758.427 509.2 740.027 517.2C721.627 525.2 702.027 529.2 681.227 529.2C659.36 529.2 639.227 525.733 620.827 518.8C602.693 511.6 586.96 501.6 573.627 488.8C560.56 475.733 550.293 460.133 542.827 442C535.36 423.867 531.627 403.733 531.627 381.6C531.627 358.933 535.36 338.4 542.827 320C550.293 301.333 560.56 285.467 573.627 272.4C586.96 259.333 602.693 249.333 620.827 242.4C639.227 235.2 659.36 231.6 681.227 231.6C700.427 231.6 718.16 235.067 734.427 242C750.96 248.667 766.293 260.133 780.427 276.4L741.227 305.2ZM889.855 400.8L783.455 238.8H846.655L916.255 351.6L986.655 238.8H1046.65L940.255 400.8V522H889.855V400.8ZM1267.01 305.2C1256.61 294 1246.47 286.533 1236.61 282.8C1227.01 279.067 1217.27 277.2 1207.41 277.2C1192.74 277.2 1179.41 279.867 1167.41 285.2C1155.67 290.267 1145.54 297.467 1137.01 306.8C1128.47 315.867 1121.81 326.533 1117.01 338.8C1112.47 351.067 1110.21 364.267 1110.21 378.4C1110.21 393.6 1112.47 407.6 1117.01 420.4C1121.81 433.2 1128.47 444.267 1137.01 453.6C1145.54 462.933 1155.67 470.267 1167.41 475.6C1179.41 480.933 1192.74 483.6 1207.41 483.6C1218.87 483.6 1229.94 480.933 1240.61 475.6C1251.54 470 1261.67 461.2 1271.01 449.2L1312.61 478.8C1299.81 496.4 1284.21 509.2 1265.81 517.2C1247.41 525.2 1227.81 529.2 1207.01 529.2C1185.14 529.2 1165.01 525.733 1146.61 518.8C1128.47 511.6 1112.74 501.6 1099.41 488.8C1086.34 475.733 1076.07 460.133 1068.61 442C1061.14 423.867 1057.41 403.733 1057.41 381.6C1057.41 358.933 1061.14 338.4 1068.61 320C1076.07 301.333 1086.34 285.467 1099.41 272.4C1112.74 259.333 1128.47 249.333 1146.61 242.4C1165.01 235.2 1185.14 231.6 1207.01 231.6C1226.21 231.6 1243.94 235.067 1260.21 242C1276.74 248.667 1292.07 260.133 1306.21 276.4L1267.01 305.2ZM1346.44 238.8H1396.84V476.4H1517.24V522H1346.44V238.8Z" fill="black"/>
<path d="M2218.81 126.687C2218.81 126.687 2311.03 179.054 2321.1 191.724C2331.17 204.393 2328.64 214.231 2327.24 228.887C2326.12 240.628 2323.49 247.144 2318.28 257.605C2312.99 268.248 2309 273.983 2300.56 282.099C2292.07 290.264 2275.6 298.569 2275.6 298.569L2167.66 222.272L2218.81 126.687Z" fill="#007513"/>
<path d="M2207.21 476.802C2207.21 476.802 2120.76 539.07 2105.42 542.703C2090.08 546.336 2082.88 539.494 2071.07 531.516C2061.62 525.125 2057.28 519.702 2050.77 510.079C2044.14 500.286 2041.09 493.957 2038.04 482.384C2034.97 470.74 2035.42 451.573 2035.42 451.573L2149.34 385.524L2207.21 476.802Z" fill="#007513"/>
<path d="M2055.12 76.8992C2055.12 76.8992 2040.52 90.8032 2034.85 114.819C2029.18 138.835 2033.23 153.503 2033.23 178.019C2033.23 223.597 2033.23 294.728 2033.23 294.728H1917.31C1917.31 294.728 1913.26 181.39 1917.31 166.222C1921.36 151.054 1926.66 153.601 1933.93 146.84C1947.14 134.552 1973.24 123.246 1973.24 123.246L2055.12 76.8992Z" fill="#007513"/>
<path d="M2170.3 170.198L2077.48 221.42L2167.08 60.2533L2170.3 170.198Z" fill="#007513"/>
<path d="M2196.95 421.637L2204.22 307.824L2296.66 467.218L2196.95 421.637Z" fill="#007513"/>
<path d="M1970.33 323.254L2060.94 381.197L1882.54 381.196L1970.33 323.254Z" fill="#007513"/>
<path d="M2149.55 97.5479L2095.67 192.068C2095.67 192.068 2083.58 179.307 2074.64 172.72C2068.35 168.085 2065.41 161.947 2057.73 162.162C2049.11 162.403 2040.41 176.52 2040.41 176.52C2040.41 176.52 2039.33 154.853 2040.41 141.046C2041.4 128.399 2041.02 120.843 2045.24 108.95C2049.29 97.5455 2051.81 90.1504 2060.71 82.3445C2071.64 72.7575 2081.42 71.6456 2095.67 71.3644C2118.85 70.9067 2149.55 97.5479 2149.55 97.5479Z" fill="#007513"/>
<path d="M2335.6 222.552C2335.6 222.552 2336.36 373.318 2335.6 378.385C2334.85 383.453 2334.32 388.629 2331.57 394.433C2329.03 399.811 2329.56 400.346 2322.71 406.68C2315.87 413.015 2276.56 435.736 2276.56 435.736L2222.02 339.567C2222.02 339.567 2302.18 290.122 2306.2 286.321C2310.23 282.52 2320.18 272.517 2325.94 261.405C2333.08 247.628 2335.6 222.552 2335.6 222.552Z" fill="#007513"/>
<path d="M2024.39 378.746C2024.39 378.746 2021.99 464.781 2024.39 476.168C2027.22 489.569 2032.92 504.375 2041.22 514.967C2049.9 526.049 2067.66 539.006 2067.66 539.006C2067.66 539.006 1987.64 511.036 1946.66 476.168C1937.53 468.394 1930.53 465.513 1924.22 455.081C1921.26 450.17 1920.17 447.029 1918.21 441.585C1909.96 418.621 1916.21 378.746 1916.21 378.746H2024.39Z" fill="#007513"/>
</svg>
